<?xml version="1.0" standalone="no"?>
<!DOCTYPE svg PUBLIC "-//W3C//DTD SVG 20010904//EN"
 "http://www.w3.org/TR/2001/REC-SVG-20010904/DTD/svg10.dtd">
<svg version="1.0" xmlns="http://www.w3.org/2000/svg"
 width="320.000000pt" height="261.000000pt" viewBox="0 0 320.000000 261.000000"
 preserveAspectRatio="xMidYMid meet">

<g transform="translate(0.000000,261.000000) scale(0.100000,-0.100000)"
fill="#000000" stroke="none">
<path d="M1152 2356 l-23 -12 21 -19 c16 -14 17 -20 8 -27 -10 -6 -10 -8 -1
-8 18 0 31 31 24 57 -5 19 -9 20 -29 9z"/>
<path d="M935 2260 c3 -5 8 -10 11 -10 2 0 4 5 4 10 0 6 -5 10 -11 10 -5 0 -7
-4 -4 -10z"/>
<path d="M2194 2259 c-8 -13 15 -30 36 -26 8 1 16 10 18 20 3 12 -3 17 -22 17
-14 0 -28 -5 -32 -11z"/>
<path d="M1978 2223 c7 -3 16 -2 19 1 4 3 -2 6 -13 5 -11 0 -14 -3 -6 -6z"/>
<path d="M1990 2194 c0 -17 22 -14 28 4 2 7 -3 12 -12 12 -9 0 -16 -7 -16 -16z"/>
<path d="M1523 1953 c9 -2 23 -2 30 0 6 3 -1 5 -18 5 -16 0 -22 -2 -12 -5z"/>
<path d="M1643 1943 c9 -2 23 -2 30 0 6 3 -1 5 -18 5 -16 0 -22 -2 -12 -5z"/>
<path d="M937 1909 c4 -13 8 -18 11 -10 2 7 -1 18 -6 23 -8 8 -9 4 -5 -13z"/>
<path d="M1888 1923 c7 -3 16 -2 19 1 4 3 -2 6 -13 5 -11 0 -14 -3 -6 -6z"/>
<path d="M2201 1917 c-9 -11 -8 -17 4 -27 19 -16 47 -5 43 17 -4 23 -31 28
-47 10z"/>
<path d="M1990 1844 c0 -9 5 -14 12 -12 18 6 21 28 4 28 -9 0 -16 -7 -16 -16z"/>
<path d="M1123 1607 c-46 -11 -83 -24 -83 -27 0 -10 456 -43 508 -37 31 4 40
3 27 -3 -18 -8 -18 -9 5 -9 14 -1 100 -8 192 -16 92 -8 174 -12 182 -9 9 3 16
17 16 29 0 22 -5 24 -77 31 -43 4 -108 8 -145 8 -37 1 -60 4 -50 8 13 5 10 7
-10 7 -23 1 -176 13 -433 35 -31 3 -81 -4 -132 -17z m544 -43 c-3 -3 -12 -4
-19 -1 -8 3 -5 6 6 6 11 1 17 -2 13 -5z m-40 -10 c-3 -3 -12 -4 -19 -1 -8 3
-5 6 6 6 11 1 17 -2 13 -5z"/>
<path d="M946 1553 c-8 -20 3 -31 13 -14 7 11 33 11 134 5 69 -5 123 -6 121
-3 -2 4 -54 10 -116 14 -62 4 -120 8 -129 10 -10 2 -20 -4 -23 -12z"/>
<path d="M2000 1547 c0 -25 14 -28 61 -13 26 8 35 14 23 15 -12 1 -36 4 -53 7
-24 5 -31 3 -31 -9z"/>
<path d="M2115 1528 c-50 -19 -50 -19 -10 -13 22 4 47 13 55 21 8 8 12 13 10
13 -3 -1 -27 -10 -55 -21z"/>
<path d="M1285 1530 c64 -8 171 -13 164 -6 -2 2 -53 6 -114 9 -78 4 -93 3 -50
-3z"/>
<path d="M1488 1513 c18 -2 45 -2 60 0 15 2 0 4 -33 4 -33 0 -45 -2 -27 -4z"/>
<path d="M1713 1496 c76 -8 165 -17 198 -20 33 -4 59 -3 59 2 0 8 -77 15 -305
26 -60 4 -44 1 48 -8z"/>
<path d="M2038 1503 c7 -3 16 -2 19 1 4 3 -2 6 -13 5 -11 0 -14 -3 -6 -6z"/>
<path d="M1172 1475 c0 -16 2 -22 5 -12 2 9 2 23 0 30 -3 6 -5 -1 -5 -18z"/>
<path d="M1280 1488 c26 -26 254 -204 308 -241 55 -38 -57 58 -171 146 -116
90 -171 128 -137 95z"/>
<path d="M2216 1485 c-3 -8 -14 -15 -25 -15 -20 0 -184 -100 -176 -108 2 -2
33 14 69 37 44 28 77 41 100 41 33 0 35 -2 39 -37 l4 -38 1 38 c1 20 7 37 12
37 15 0 12 29 -4 45 -12 12 -15 12 -20 0z"/>
<path d="M1090 1425 c-103 -20 -150 -35 -150 -46 0 -6 8 -8 18 -5 9 2 58 15
107 27 89 22 138 39 105 38 -8 -1 -44 -7 -80 -14z"/>
<path d="M1167 1413 c-2 -5 -1 -19 4 -33 7 -23 7 -23 8 8 1 31 -3 40 -12 25z"/>
<path d="M1885 1288 c-73 -46 -133 -92 -75 -57 14 9 54 33 90 54 76 45 75 44
69 49 -3 3 -40 -18 -84 -46z"/>
<path d="M2222 1220 c0 -14 2 -19 5 -12 2 6 2 18 0 25 -3 6 -5 1 -5 -13z"/>
<path d="M1640 1206 c0 -2 7 -9 15 -16 9 -7 15 -8 15 -2 0 5 -7 12 -15 16 -8
3 -15 4 -15 2z"/>
<path d="M1690 1174 c0 -8 5 -12 10 -9 6 3 10 10 10 16 0 5 -4 9 -10 9 -5 0
-10 -7 -10 -16z"/>
<path d="M1410 1005 c-9 -11 -10 -19 -3 -26 14 -14 43 0 43 22 0 23 -23 25
-40 4z"/>
<path d="M1940 971 c0 -5 7 -14 15 -21 13 -10 15 -9 15 9 0 12 -6 21 -15 21
-8 0 -15 -4 -15 -9z"/>
<path d="M1160 860 c0 -42 17 -53 39 -26 9 10 8 16 -4 26 -8 7 -15 19 -15 26
0 8 -4 14 -10 14 -5 0 -10 -18 -10 -40z"/>
<path d="M2184 779 c-5 -9 35 -39 53 -39 14 0 19 39 6 41 -5 0 -18 2 -31 3
-13 2 -25 -1 -28 -5z"/>
<path d="M940 520 c0 -5 5 -10 11 -10 5 0 7 5 4 10 -3 6 -8 10 -11 10 -2 0 -4
-4 -4 -10z"/>
<path d="M2000 449 c0 -18 2 -19 15 -9 15 12 12 30 -6 30 -5 0 -9 -10 -9 -21z"/>
<path d="M1176 403 c-6 -14 -5 -15 5 -6 7 7 10 15 7 18 -3 3 -9 -2 -12 -12z"/>
<path d="M937 353 c-4 -3 -7 -11 -7 -17 0 -6 5 -5 12 2 6 6 9 14 7 17 -3 3 -9
2 -12 -2z"/>
</g>
</svg>
